<svg width="701" height="701" viewBox="0 0 701 701" fill="none" xmlns="http://www.w3.org/2000/svg">
<path d="M653.012 426.724L516.512 347.79C510.318 344.208 502.682 344.208 496.488 347.79L359.988 426.724C356.86 428.533 354.34 431.117 352.613 434.153L496.5 517.227C499.594 519.013 503.047 519.906 506.5 519.906C509.953 519.906 513.406 519.013 516.5 517.227L660.387 434.153C658.661 431.117 656.14 428.533 653.012 426.724Z" fill="#2885AE"/>
<path d="M663 601.962V444.038C663 440.511 662.071 437.117 660.387 434.153L516.5 517.227C513.406 519.013 509.953 519.906 506.5 519.906V700.897C509.957 700.897 513.415 700.001 516.512 698.21L653.012 619.276C659.193 615.701 663 609.103 663 601.962Z" fill="#17597B"/>
<path d="M359.988 619.276L496.488 698.21C499.585 700.001 503.043 700.897 506.5 700.897V519.906C503.047 519.906 499.594 519.013 496.5 517.227L352.613 434.153C350.929 437.117 350 440.511 350 444.038V601.962C350 609.103 353.807 615.701 359.988 619.276Z" fill="#0B3957"/>
<path d="M307.012 426.621L170.512 347.686C164.318 344.105 156.682 344.105 150.488 347.686L13.988 426.621C10.8596 428.43 8.3395 431.014 6.61323 434.05L150.5 517.123C153.594 518.91 157.047 519.803 160.5 519.803C163.953 519.803 167.406 518.91 170.5 517.123L314.387 434.05C312.661 431.014 310.14 428.43 307.012 426.621Z" fill="#0B3957"/>
<path d="M317 601.859V443.935C317 440.408 316.071 437.013 314.387 434.05L170.5 517.123C167.406 518.91 163.953 519.803 160.5 519.803V700.793C163.957 700.793 167.415 699.898 170.512 698.107L307.012 619.173C313.193 615.598 317 608.999 317 601.859Z" fill="#0B3049"/>
<path d="M13.988 619.173L150.488 698.107C153.585 699.898 157.043 700.793 160.5 700.793V519.803C157.047 519.803 153.594 518.91 150.5 517.123L6.61323 434.05C4.9286 437.013 4 440.408 4 443.935V601.859C4 608.999 7.80673 615.598 13.988 619.173Z" fill="#072135"/>
<path d="M687 164.58C700.333 172.278 700.333 191.523 687 199.221L540 284.091C526.667 291.789 510 282.167 510 266.771V97.0298C510 81.6338 526.667 72.0113 540 79.7093L687 164.58Z" fill="#354552"/>
<path d="M49 204.176C35.6667 211.874 35.6667 231.119 49 238.817L127.75 284.283C141.083 291.981 157.75 282.359 157.75 266.963V176.03C157.75 160.634 141.083 151.011 127.75 158.709L49 204.176Z" fill="#354552"/>
<path d="M483 300.454V149.984V116.719C483 116.719 481 139.219 466.5 160.219C457.126 173.794 438.474 186.719 438.474 186.719L354.5 235.542C354.5 235.542 345.25 239.219 338.5 251.219C334 259.219 334 277.219 334 277.219V394.719C337.292 394.719 340.584 393.866 343.532 392.16L473.491 316.951C479.376 313.545 483 307.258 483 300.454Z" fill="#072135"/>
<path d="M194.509 316.951L324.468 392.16C327.416 393.866 330.708 394.719 334 394.719V277.219C334 277.219 334 259.219 338.5 251.219C345.25 239.219 354.5 235.542 354.5 235.542L438.474 186.719C438.474 186.719 457.126 173.794 466.5 160.219C481 139.219 483 116.719 483 116.719V21.7188C483 21.7188 482.5 8.11886 471.5 3.71875C459 -1.28137 448 6.21883 448 6.21883L353 66.7191C353 66.7191 338.447 75.9747 332 86.7191C326 96.7191 322.5 104.43 322.5 116.719V211.219L209 146.219C209 146.219 199.778 140.219 192 145.219C185 149.719 185 155.359 185 158.719V300.454C185 307.258 188.624 313.545 194.509 316.951Z" fill="#103D5C"/>
</svg>
