<svg width="311" height="70" viewBox="2.3760000000000003 17.89185836224178 311 70" fill="none" xmlns="http://www.w3.org/2000/svg">
  <path d="M26.64 72.72C38.59 72.72 45.36 64.44 46.94 55.94C47.38 53.86 45.14 53.57 44.28 55.01C42.05 60.34 37.08 66.96 28.44 66.96C18.29 66.96 8.86 56.88 8.86 42.34C8.86 30.96 16.27 23.18 24.62 23.18C37.80 23.18 37.37 36.65 42.77 36.65C44.78 36.65 45.94 35.42 45.94 33.55C45.94 28.37 37.66 20.23 26.28 20.23C12.46 20.23 2.38 30.82 2.38 45.94C2.38 60.19 13.97 72.72 26.64 72.72ZM69.98 72.72C80.14 72.72 86.98 64.94 86.98 55.01C86.98 44.93 79.49 36.72 68.69 36.72C58.82 36.72 51.19 44.21 51.19 54.22C51.19 64.01 58.54 72.72 69.98 72.72ZM70.85 70.34C62.93 70.34 57.60 61.42 57.60 52.20C57.60 44.14 61.85 39.10 67.97 39.10C75.31 39.10 80.64 47.09 80.64 57.17C80.64 65.23 76.46 70.34 70.85 70.34ZM107.78 18.94C100.15 18.94 96.05 24.12 96.05 31.18L96.05 37.44L90.07 37.44C89.42 37.44 88.99 37.94 88.99 38.45L88.99 39.38C88.99 39.89 89.42 40.32 90.07 40.32L96.05 40.32L96.05 66.89C96.05 69.48 93.31 69.55 93.31 70.92L93.31 71.14C93.31 71.64 93.67 72 94.39 72L104.54 72C105.19 72 105.62 71.64 105.62 71.14L105.62 70.92C105.62 69.55 102.38 69.48 102.38 66.89L102.38 40.32L112.39 40.32C112.97 40.32 113.40 39.89 113.40 39.38L113.40 38.45C113.40 37.94 112.97 37.44 112.39 37.44L102.38 37.44L102.38 35.50C100.87 28.08 101.81 21.17 106.78 21.24C113.18 21.31 109.01 28.51 114.62 28.51C116.35 28.51 117.29 27.22 117.29 25.99C117.29 22.10 112.82 18.94 107.78 18.94ZM132.62 72.72C142.78 72.72 149.62 64.94 149.62 55.01C149.62 44.93 142.13 36.72 131.33 36.72C121.46 36.72 113.83 44.21 113.83 54.22C113.83 64.01 121.18 72.72 132.62 72.72ZM133.49 70.34C125.57 70.34 120.24 61.42 120.24 52.20C120.24 44.14 124.49 39.10 130.61 39.10C137.95 39.10 143.28 47.09 143.28 57.17C143.28 65.23 139.10 70.34 133.49 70.34ZM187.13 65.81L187.13 37.87C187.13 36.94 186.48 36.79 185.26 37.01L179.14 38.09C178.42 38.23 178.06 38.66 178.06 39.17L178.06 39.38C178.06 40.68 180.86 40.82 180.86 43.56L180.86 58.97C180.86 65.59 176.83 69.91 171.72 69.91C166.25 69.91 163.22 65.16 163.22 56.81L163.30 37.87C163.30 36.94 162.58 36.79 161.35 37.01L155.30 38.09C154.66 38.23 154.22 38.66 154.22 39.17L154.22 39.38C154.22 40.61 156.89 40.82 156.89 43.56L156.89 56.30C156.89 66.96 162.36 72.72 170.21 72.72C175.32 72.72 179.21 70.49 181.30 66.67L181.44 67.10C181.30 71.14 183.46 72.43 186.70 72.43C189.72 72.43 191.16 72.14 191.16 70.92C191.16 68.83 187.13 71.06 187.13 65.81ZM229.82 66.82L229.03 52.63C228.31 41.47 222.41 36.72 215.35 36.72C210.38 36.72 206.21 39.31 204.12 43.34L204.12 38.09C204.12 37.01 203.47 36.29 202.10 37.01L196.70 39.60C195.98 39.89 195.55 40.18 195.55 40.68L195.55 40.90C195.55 42.19 198.58 42.05 198.58 45.14L198.58 66.96C198.58 69.48 195.77 69.48 195.77 70.85L195.77 71.14C195.77 71.71 196.34 72.07 197.21 72.07L206.21 72.07C207.14 72.07 207.72 71.71 207.72 71.14L207.72 70.85C207.72 69.48 204.84 69.48 204.84 66.96L204.84 49.46C204.84 43.78 208.51 39.53 213.84 39.53C218.81 39.53 222.34 43.70 222.70 52.49L223.42 66.89C223.56 69.48 220.82 69.48 220.82 70.85L220.82 71.14C220.82 71.71 221.40 72.07 222.34 72.07L230.90 72.07C231.84 72.07 232.42 71.71 232.42 71.14L232.42 70.85C232.42 69.48 229.97 69.48 229.82 66.82ZM270.00 66.96L270.00 19.22C270.00 18.00 269.28 17.57 267.77 18.14L261.94 20.09C261.29 20.38 260.86 20.74 260.86 21.31L260.86 21.46C260.86 22.75 263.88 22.68 263.88 25.70L263.88 41.40C261.43 38.59 257.83 36.72 253.44 36.72C243.86 36.72 236.59 44.14 236.59 54.65C236.59 65.59 244.44 72.72 253.22 72.72C257.47 72.72 261.72 70.85 264.17 67.25L264.31 70.85C264.38 71.50 264.82 72 265.54 72L271.58 72C272.30 72 272.66 71.71 272.66 71.21L272.66 70.99C272.66 69.77 270.00 69.55 270.00 66.96ZM254.74 70.34C247.54 70.27 242.64 62.35 242.78 52.49C242.86 44.42 247.18 39.02 253.37 39.02C259.27 39.02 263.88 44.50 263.88 49.10L263.88 56.30L263.95 59.98L263.88 59.98C263.88 66.89 258.84 70.34 254.74 70.34ZM311.54 37.44L304.34 37.44C303.70 37.44 303.26 37.80 303.26 38.30L303.26 38.52C303.26 39.96 307.58 39.89 306 43.56L295.70 67.39L285.34 42.98C283.97 39.89 286.56 39.96 286.56 38.52L286.56 38.30C286.56 37.80 286.13 37.44 285.55 37.44L276.19 37.44C275.62 37.44 275.11 37.73 275.11 38.30L275.11 38.52C275.11 39.96 277.13 39.89 278.57 42.91L292.39 73.37C289.87 79.70 286.70 84.74 283.61 84.74C279.14 84.74 280.15 77.98 276.41 77.98C274.68 77.98 273.67 79.20 273.67 80.86C273.67 83.66 277.13 87.26 282.53 87.26C289.58 87.26 292.90 79.34 295.70 73.01L309.31 42.98C310.68 39.89 312.55 39.96 312.55 38.52L312.55 38.30C312.55 37.73 312.12 37.44 311.54 37.44Z" fill="#1e293b"/>
</svg>